#N canvas 756 472 735 391 12;
#X obj 106 129 pd-server/server 8090;
#X msg 106 48 start;
#X msg 202 81 ssl 1;
#X msg 31 75 stop;
#X obj 202 30 loadbang;
#X connect 1 0 0 0;
#X connect 2 0 0 0;
#X connect 3 0 0 0;
#X connect 4 0 2 0;
